<svg width="25" height="25" viewBox="0 0 25 25" fill="none" xmlns="http://www.w3.org/2000/svg">
<g clip-path="url(#clip0_20_23)">
<path d="M24.15 3.84998V20.15C24.15 21.805 22.805 23.15 21.15 23.15H4.84998C3.19498 23.15 1.84998 21.805 1.84998 20.15V3.84998C1.84998 2.19498 3.19498 0.849976 4.84998 0.849976H21.15C22.805 0.849976 24.15 2.19498 24.15 3.84998Z" fill="#3231C7"/>
<path d="M24.15 11.02V20.15C24.15 21.805 22.805 23.15 21.15 23.15H4.84998C3.19498 23.15 1.84998 21.805 1.84998 20.15V3.84998C1.84998 2.19498 3.19498 0.849976 4.84998 0.849976H13.98C18.3 3.14498 21.855 6.69998 24.15 11.02Z" fill="#7228AD"/>
<path d="M23 22.5C23 22.505 23 22.505 23 22.51C22.49 22.91 21.85 23.15 21.15 23.15H4.84998C3.19498 23.15 1.84998 21.805 1.84998 20.15V3.85C1.84998 3.15 2.08997 2.51 2.48997 2C2.49497 2 2.49498 2 2.49998 2C13.82 2 23 11.18 23 22.5Z" fill="#B11E93"/>
<path d="M19 22.5C19 22.72 18.995 22.935 18.985 23.15H4.84998C3.19498 23.15 1.84998 21.805 1.84998 20.15V6.015C2.06498 6.005 2.27998 6 2.49998 6C11.615 6 19 13.385 19 22.5Z" fill="#DB1A58"/>
<path d="M15 22.5C15 22.715 14.995 22.935 14.985 23.15H4.84998C3.19498 23.15 1.84998 21.805 1.84998 20.15V10.015C2.06498 10.005 2.28498 10 2.49998 10C9.40498 10 15 15.595 15 22.5Z" fill="#E4273E"/>
<path d="M11.5 22.5C11.5 22.72 11.49 22.935 11.475 23.15H4.84998C3.19498 23.15 1.84998 21.805 1.84998 20.15V13.525C2.06498 13.51 2.27998 13.5 2.49998 13.5C7.46997 13.5 11.5 17.53 11.5 22.5Z" fill="#F47C22"/>
<path d="M8.49998 22.5C8.49998 22.72 8.48998 22.935 8.46498 23.15H4.84998C3.19498 23.15 1.84998 21.805 1.84998 20.15V16.535C2.06498 16.51 2.27998 16.5 2.49998 16.5C5.81498 16.5 8.49998 19.185 8.49998 22.5Z" fill="#EF9922"/>
<path d="M21.15 23.5H4.85C3.003 23.5 1.5 21.997 1.5 20.15V3.85C1.5 2.003 3.003 0.5 4.85 0.5H21.15C22.997 0.5 24.5 2.003 24.5 3.85V20.15C24.5 21.997 22.997 23.5 21.15 23.5ZM4.85 1.2C3.3885 1.2 2.2 2.3885 2.2 3.85V20.15C2.2 21.611 3.3885 22.8 4.85 22.8H21.15C22.6115 22.8 23.8 21.6115 23.8 20.15V3.85C23.8 2.389 22.6115 1.2 21.15 1.2H4.85Z" fill="#2B2B2B"/>
<path d="M12.995 19.725C11.004 19.725 10.263 19.7195 9.50603 19.685C8.81203 19.654 8.27153 19.5495 7.75353 19.3465C7.25053 19.1525 6.85703 18.897 6.47703 18.517C6.10053 18.14 5.84453 17.746 5.64803 17.2405C5.45053 16.737 5.34603 16.1965 5.30953 15.488C5.27503 14.7255 5.26953 13.985 5.26953 11.9995C5.26953 10.0175 5.27503 9.27855 5.30953 8.51555C5.34053 7.82155 5.44503 7.28155 5.64753 6.76355C5.84453 6.25305 6.10003 5.85955 6.47703 5.48705C6.85403 5.11055 7.24753 4.85455 7.75403 4.65755C8.27153 4.45505 8.81203 4.35105 9.50603 4.31905C10.2885 4.28405 11.0385 4.27405 12.995 4.27405C14.952 4.27405 15.7005 4.28405 16.4785 4.31905C17.1725 4.35055 17.713 4.45455 18.2315 4.65755C18.742 4.85455 19.135 5.11005 19.5075 5.48705C19.881 5.85605 20.1385 6.24905 20.342 6.76355C20.5405 7.28655 20.644 7.82755 20.6755 8.51555C20.7105 9.30555 20.7205 10.0545 20.7205 11.999C20.7205 13.9475 20.7105 14.6975 20.6755 15.488C20.644 16.1765 20.541 16.717 20.342 17.2405C20.1385 17.7495 19.8805 18.1435 19.5075 18.5165C19.136 18.8925 18.744 19.1485 18.236 19.346C17.7115 19.5485 17.1695 19.653 16.4785 19.684C15.7215 19.7195 14.982 19.725 12.995 19.725ZM12.34 5.72505C10.964 5.72505 10.2085 5.73555 9.55253 5.76455C8.88153 5.79555 8.51153 5.90805 8.26403 6.00255C7.95553 6.12355 7.73453 6.26755 7.50153 6.50155C7.26803 6.73455 7.12403 6.95405 7.00503 7.25955C6.90953 7.50855 6.79653 7.87955 6.76553 8.55205C6.73153 9.30505 6.72603 9.99955 6.72603 11.9955C6.72603 13.9955 6.73153 14.6905 6.76553 15.443C6.79653 16.111 6.90903 16.481 7.00403 16.729C7.12353 17.0385 7.26703 17.2595 7.49903 17.4915C7.73553 17.724 7.95703 17.8675 8.26403 17.9885C8.50353 18.0825 8.86603 18.194 9.55203 18.226C10.332 18.261 11.072 18.2705 12.996 18.2705C14.924 18.2705 15.665 18.261 16.4435 18.226C17.146 18.1935 17.517 18.0745 17.735 17.9875C18.037 17.8705 18.257 17.7285 18.492 17.4985C18.725 17.2605 18.8695 17.039 18.9925 16.7315C19.0855 16.488 19.195 16.123 19.227 15.444C19.2615 14.6575 19.2715 13.9165 19.2715 11.9955C19.2715 10.078 19.2615 9.33805 19.227 8.55255C19.1955 7.87455 19.086 7.50955 18.9935 7.26755C18.874 6.95755 18.731 6.73705 18.4985 6.50505C18.2495 6.26005 18.047 6.13005 17.7245 6.00655C17.4925 5.91405 17.1355 5.80255 16.4445 5.77005C15.677 5.73505 14.9355 5.72555 12.9965 5.72555H12.34V5.72505Z" fill="white"/>
<path d="M12.995 4.40002C14.9495 4.40002 15.6975 4.40952 16.473 4.44502C17.1525 4.47552 17.6805 4.57752 18.187 4.77502C18.6795 4.96502 19.059 5.21152 19.4205 5.57752C19.78 5.93252 20.0285 6.31252 20.2245 6.80702C20.419 7.31902 20.5195 7.84752 20.5505 8.52152C20.5855 9.30952 20.595 10.0575 20.595 12C20.595 13.9465 20.5855 14.695 20.5505 15.483C20.5195 16.158 20.419 16.6865 20.2265 17.193C20.0285 17.6875 19.7795 18.0685 19.418 18.43C19.06 18.7925 18.6815 19.0395 18.1915 19.23C17.68 19.4275 17.15 19.5295 16.4735 19.56C15.719 19.5945 14.9805 19.6 12.9955 19.6C11.0065 19.6 10.2665 19.5945 9.51202 19.56C8.83252 19.5295 8.30452 19.428 7.79902 19.23C7.31352 19.0425 6.93352 18.7955 6.56652 18.429C6.20252 18.0645 5.95552 17.6845 5.76502 17.195C5.57302 16.7045 5.47152 16.176 5.43552 15.4835C5.40102 14.7225 5.39552 13.983 5.39552 11.9995C5.39552 10.02 5.40102 9.28152 5.43552 8.52102C5.46602 7.84152 5.56752 7.31353 5.76552 6.80753C5.95552 6.31503 6.20202 5.93503 6.56702 5.57503C6.93052 5.21153 7.31102 4.96452 7.80052 4.77402C8.30502 4.57702 8.83302 4.47503 9.51252 4.44403C10.2925 4.40953 11.041 4.40002 12.995 4.40002ZM12.995 18.395C14.9255 18.395 15.6675 18.3855 16.4485 18.3505C17.17 18.317 17.554 18.1935 17.7775 18.104C18.098 17.98 18.33 17.8305 18.582 17.5835C18.8255 17.335 18.9775 17.1015 19.1085 16.7735C19.204 16.523 19.318 16.146 19.35 15.449C19.385 14.661 19.3945 13.9185 19.3945 11.995C19.3945 10.0755 19.385 9.33402 19.35 8.54602C19.3175 7.85052 19.204 7.47353 19.1085 7.22103C18.984 6.89853 18.8275 6.65802 18.584 6.41402C18.325 6.15952 18.104 6.01702 17.7715 5.89002C17.5285 5.79302 17.159 5.67752 16.449 5.64402C15.6795 5.60902 14.937 5.59953 12.9955 5.59953H12.34C10.962 5.59953 10.205 5.61002 9.54602 5.63902C8.85802 5.67102 8.47552 5.78702 8.21702 5.88552C7.89652 6.01102 7.65602 6.16853 7.41252 6.41203C7.16902 6.65503 7.01202 6.89453 6.88702 7.21453C6.78852 7.47103 6.67152 7.85452 6.63952 8.54552C6.60502 9.30102 6.59952 9.99602 6.59952 11.9945C6.59952 13.9965 6.60452 14.693 6.63952 15.448C6.67152 16.134 6.78802 16.516 6.88602 16.773C7.01202 17.1 7.16402 17.3335 7.41102 17.5805C7.65652 17.8215 7.89752 17.978 8.21752 18.1035C8.46552 18.2005 8.84102 18.3165 9.54552 18.3495C10.3275 18.3855 11.069 18.395 12.995 18.395ZM12.995 4.15002C10.9995 4.15002 10.268 4.16052 9.50052 4.19502C8.79202 4.22702 8.23952 4.33452 7.70902 4.54152C7.18552 4.74552 6.77902 5.01003 6.38952 5.39853C5.99952 5.78403 5.73452 6.19103 5.53152 6.71803C5.32352 7.24903 5.21652 7.80203 5.18502 8.51003C5.15052 9.27852 5.14502 10.0195 5.14502 11.9995C5.14502 13.984 5.15052 14.7255 5.18502 15.4945C5.22252 16.2165 5.32952 16.769 5.53152 17.286C5.73502 17.8085 6.00002 18.2155 6.38902 18.6055C6.78202 18.9985 7.18952 19.2625 7.70852 19.463C8.23952 19.671 8.79252 19.778 9.50052 19.8095C10.269 19.8445 11.0105 19.85 12.995 19.85C14.975 19.85 15.7155 19.845 16.4845 19.8095C17.1895 19.778 17.744 19.671 18.2815 19.463C18.807 19.2585 19.212 18.994 19.596 18.6055C19.9815 18.22 20.2475 17.814 20.459 17.2855C20.6635 16.748 20.7685 16.1955 20.801 15.494C20.835 14.726 20.846 13.994 20.846 11.9995C20.846 10.01 20.8355 9.27803 20.801 8.51003C20.769 7.80903 20.664 7.25703 20.4585 6.71753C20.248 6.18653 19.982 5.77952 19.5965 5.39902C19.211 5.00902 18.8045 4.74453 18.277 4.54103C17.7455 4.33303 17.1925 4.22652 16.4845 4.19452C15.7215 4.16052 14.991 4.15002 12.995 4.15002ZM12.995 18.145C11.074 18.145 10.335 18.1355 9.55702 18.1005C8.88902 18.0695 8.53902 17.9615 8.30902 17.8715C8.01802 17.757 7.80902 17.6215 7.58652 17.4025C7.36602 17.182 7.23402 16.9795 7.11952 16.6835C7.02852 16.4455 6.92002 16.086 6.88952 15.4365C6.85552 14.6905 6.85002 13.996 6.85002 11.9945C6.85002 9.99702 6.85552 9.30352 6.88952 8.55702C6.92002 7.90302 7.02852 7.54403 7.12052 7.30403C7.23302 7.01703 7.36902 6.80903 7.58952 6.58903C7.80952 6.36853 8.01752 6.23252 8.30852 6.11852C8.54502 6.02852 8.90452 5.91902 9.55802 5.88902C10.21 5.86102 10.965 5.85003 12.34 5.85003H12.9955C14.9335 5.85003 15.673 5.85952 16.438 5.89402C17.111 5.92552 17.4545 6.03252 17.679 6.12252C17.985 6.23952 18.174 6.36153 18.409 6.59253C18.627 6.81053 18.763 7.01953 18.876 7.31153C18.964 7.54303 19.0705 7.89653 19.101 8.55803C19.1355 9.33653 19.1455 10.076 19.1455 11.9955C19.1455 13.919 19.1355 14.6595 19.101 15.4385C19.07 16.0995 18.9645 16.452 18.8755 16.6855C18.7585 16.9785 18.625 17.1835 18.404 17.4095C18.1815 17.628 17.9785 17.7595 17.688 17.8715C17.476 17.956 17.123 18.0695 16.4375 18.101C15.66 18.1355 14.92 18.145 12.995 18.145Z" fill="#2B2B2B"/>
<path d="M17.25 8.625C16.7675 8.625 16.375 8.2325 16.375 7.75C16.375 7.2675 16.7675 6.875 17.25 6.875H17.2505C17.484 6.875 17.7035 6.966 17.8685 7.131C18.034 7.2965 18.125 7.516 18.125 7.7495C18.125 8.2325 17.7325 8.625 17.25 8.625Z" fill="white"/>
<path d="M17.25 7C17.664 7 18 7.336 18 7.75C18 8.164 17.664 8.5 17.25 8.5C16.836 8.5 16.5 8.164 16.5 7.75C16.5 7.336 16.836 7.0005 17.25 7ZM17.25 6.75C16.6985 6.7505 16.25 7.199 16.25 7.75C16.25 8.3015 16.6985 8.75 17.25 8.75C17.8015 8.75 18.25 8.3015 18.25 7.75C18.25 7.1985 17.8015 6.75 17.25 6.75Z" fill="#2B2B2B"/>
<path d="M12.994 7.75201C10.6465 7.75201 8.74353 9.65501 8.74353 12.0025C8.74353 14.35 10.6465 16.252 12.994 16.252C15.3415 16.252 17.2435 14.3495 17.2435 12.0025C17.2435 9.65551 15.341 7.75201 12.994 7.75201ZM12.994 9.25251C14.5125 9.25251 15.744 10.4835 15.744 12.0025C15.744 13.521 14.5125 14.7525 12.994 14.7525C11.475 14.7525 10.244 13.521 10.244 12.0025C10.244 10.4835 11.475 9.25251 12.994 9.25251Z" fill="white"/>
<path d="M12.994 16.377C10.5815 16.377 8.61853 14.4145 8.61853 12.002C8.61853 9.58951 10.5815 7.62701 12.994 7.62701C15.406 7.62701 17.3685 9.58951 17.3685 12.002C17.3685 14.4145 15.406 16.377 12.994 16.377ZM12.994 7.87701C10.719 7.87701 8.86853 9.72751 8.86853 12.002C8.86853 14.2765 10.719 16.127 12.994 16.127C15.2685 16.127 17.1185 14.2765 17.1185 12.002C17.1185 9.72751 15.2685 7.87701 12.994 7.87701ZM12.994 14.877C11.4085 14.877 10.119 13.587 10.119 12.002C10.119 10.417 11.4085 9.12701 12.994 9.12701C14.5795 9.12701 15.869 10.417 15.869 12.002C15.869 13.587 14.5795 14.877 12.994 14.877ZM12.994 9.37701C11.5465 9.37701 10.369 10.5545 10.369 12.002C10.369 13.4495 11.5465 14.627 12.994 14.627C14.4415 14.627 15.619 13.4495 15.619 12.002C15.619 10.5545 14.4415 9.37701 12.994 9.37701Z" fill="#2B2B2B"/>
</g>
<defs>
<clipPath id="clip0_20_23">
<rect width="25" height="25" fill="white"/>
</clipPath>
</defs>
</svg>
