<svg width="40" height="40" viewBox="0 0 40 40" fill="none" xmlns="http://www.w3.org/2000/svg">
<mask id="mask0_1_145" style="mask-type:alpha" maskUnits="userSpaceOnUse" x="0" y="0" width="40" height="40">
<rect width="40" height="40" rx="4" fill="#D9D9D9"/>
</mask>
<g mask="url(#mask0_1_145)">
<path d="M6.38887 30C5.62182 30 5 29.3782 5 28.6111V28.6111C5 27.8441 5.62182 27.2222 6.38887 27.2222H33.6111C34.3782 27.2222 35 27.8441 35 28.6111V28.6111C35 29.3782 34.3782 30 33.6111 30H6.38887ZM6.38888 21.3889C5.62182 21.3889 5 20.7671 5 20V20C5 19.2329 5.62182 18.6111 6.38888 18.6111H33.6111C34.3782 18.6111 35 19.2329 35 20V20C35 20.7671 34.3782 21.3889 33.6111 21.3889H6.38888ZM6.38887 12.7777C5.62182 12.7777 5 12.1559 5 11.3889V11.3889C5 10.6218 5.62182 10 6.38887 10H33.6111C34.3782 10 35 10.6218 35 11.3889V11.3889C35 12.1559 34.3782 12.7777 33.6111 12.7777H6.38887Z" fill="white"/>
</g>
</svg>
