<svg width="24" height="25" viewBox="0 0 24 25" fill="none" xmlns="http://www.w3.org/2000/svg">
<g clip-path="url(#clip0_10_71)">
<path d="M12 0.812531C10.4714 0.81253 8.95778 1.12615 7.54555 1.73549C6.13332 2.34483 4.85014 3.23795 3.76926 4.36386C2.68839 5.48977 1.83099 6.82642 1.24603 8.29749C0.661062 9.76857 0.359985 11.3453 0.359985 12.9375C0.359985 14.5298 0.661062 16.1065 1.24603 17.5776C1.83099 19.0486 2.68839 20.3853 3.76926 21.5112C4.85014 22.6371 6.13332 23.5302 7.54555 24.1396C8.95778 24.7489 10.4714 25.0625 12 25.0625C13.5286 25.0625 15.0422 24.7489 16.4544 24.1396C17.8667 23.5302 19.1498 22.6371 20.2307 21.5112C21.3116 20.3853 22.169 19.0486 22.7539 17.5776C23.3389 16.1065 23.64 14.5298 23.64 12.9375C23.64 11.3453 23.3389 9.76857 22.7539 8.29749C22.169 6.82642 21.3116 5.48977 20.2307 4.36386C19.1498 3.23795 17.8667 2.34483 16.4544 1.73549C15.0422 1.12615 13.5286 0.81253 12 0.812531Z" fill="#48BED8"/>
<path d="M12 25.4125C5.39663 25.4125 0.0239868 19.8165 0.0239868 12.9375C0.0239868 6.05852 5.39663 0.462524 12 0.462524C18.6033 0.462524 23.976 6.05852 23.976 12.9375C23.976 19.8165 18.6033 25.4125 12 25.4125ZM12 1.16253C5.76719 1.16253 0.695988 6.44452 0.695988 12.9375C0.695988 19.4305 5.76719 24.7125 12 24.7125C18.2328 24.7125 23.304 19.4305 23.304 12.9375C23.304 6.44452 18.2328 1.16253 12 1.16253Z" fill="#2B2B2B"/>
<path d="M21.3235 10.3125C21.2208 10.3125 21.1258 10.243 21.0941 10.1355C21.0518 9.992 21.0062 9.85 20.9578 9.709C20.7696 9.162 20.5325 8.6295 20.2522 8.1245C20.1854 8.0055 20.2248 7.852 20.3395 7.783C20.4542 7.7125 20.6011 7.7545 20.6674 7.8745C20.9621 8.405 21.2117 8.9655 21.4094 9.54C21.4603 9.6885 21.5083 9.8375 21.5525 9.9885C21.5914 10.1205 21.5203 10.2605 21.3931 10.301C21.3701 10.309 21.3466 10.3125 21.3235 10.3125Z" fill="#2B2B2B"/>
<path d="M12 23.375C6.4747 23.375 1.97998 18.7065 1.97998 12.9685C1.97998 7.2305 6.4747 2.5625 12 2.5625C14.868 2.5625 17.6035 3.8425 19.5053 6.074C19.6488 6.2425 19.7875 6.4165 19.9205 6.5945C20.0016 6.7035 19.9829 6.86 19.8787 6.945C19.7741 7.031 19.6233 7.0105 19.5417 6.901C19.415 6.7315 19.2825 6.5665 19.1462 6.406C17.3357 4.281 14.7307 3.062 12 3.062C6.73966 3.062 2.45998 7.506 2.45998 12.9685C2.45998 18.431 6.73966 22.875 12 22.875C17.2603 22.875 21.54 18.431 21.54 12.9685C21.54 12.471 21.504 11.9705 21.4334 11.482C21.4137 11.346 21.504 11.2185 21.635 11.198C21.7694 11.1775 21.8885 11.2715 21.9081 11.408C21.9821 11.9205 22.02 12.446 22.02 12.9685C22.02 18.7065 17.5253 23.375 12 23.375Z" fill="#2B2B2B"/>
<path d="M11.3549 17.2425L9.26448 19.253C9.26448 19.253 9.10128 19.3835 8.92224 19.3015L9.32256 15.5665L11.3549 17.2425Z" fill="#B5CFE4"/>
<path d="M9.04463 19.4535C8.99135 19.4535 8.93375 19.443 8.87471 19.416L8.79407 19.3795L9.22799 15.329L11.5397 17.2355L9.34607 19.345C9.33311 19.3555 9.20831 19.4535 9.04463 19.4535ZM9.41807 15.8045L9.05423 19.2035C9.12959 19.2005 9.18911 19.1555 9.19247 19.153L11.171 17.2495L9.41807 15.8045Z" fill="#2B2B2B"/>
<path d="M18.1056 7.25702L15.8155 19.4395C15.8155 19.4395 15.4954 20.2845 14.6141 19.879L9.3288 15.604L7.40687 14.624L4.17168 13.4755C4.17168 13.4755 3.67487 13.29 3.62687 12.8845C3.57887 12.479 4.18703 12.2595 4.18703 12.2595L17.0486 6.93702C17.0486 6.93552 18.1056 6.44552 18.1056 7.25702Z" fill="white"/>
<path d="M15.0643 20.1145C14.9074 20.1145 14.7408 20.074 14.5656 19.9935L9.25535 15.7025L7.35455 14.736L4.13375 13.5935C4.10879 13.584 3.56495 13.376 3.50831 12.899C3.44879 12.399 4.11983 12.151 4.14863 12.1405L17.0045 6.82002L17.0059 6.82352C17.1653 6.73102 17.5853 6.61452 17.8522 6.68952C17.9918 6.72802 18.2256 6.85352 18.2256 7.25702L18.2232 7.28102L15.9331 19.4635C15.9211 19.502 15.7709 19.8875 15.3979 20.047C15.2923 20.092 15.181 20.1145 15.0643 20.1145ZM17.1552 7.02552V7.02652L17.0933 7.05252L4.23167 12.375C4.22159 12.379 3.71135 12.573 3.74591 12.8685C3.78383 13.189 4.20815 13.356 4.21247 13.3575L7.44575 14.5055L9.38159 15.4915L14.688 19.7805C14.9069 19.8765 15.1229 19.894 15.3072 19.8155C15.587 19.696 15.7032 19.3965 15.7042 19.3935L17.9856 7.24502C17.9837 7.10802 17.9462 7.01702 17.8723 6.96702C17.6918 6.84652 17.3198 6.96052 17.1552 7.02552Z" fill="#2B2B2B"/>
<path d="M8.92221 19.302C8.92221 19.302 8.76813 19.287 8.57565 18.6445C8.38365 18.0025 7.40637 14.623 7.40637 14.623L15.1747 9.41849C15.1747 9.41849 15.623 9.13099 15.6072 9.41849C15.6072 9.41849 15.6869 9.46899 15.4469 9.70599C15.2069 9.94299 9.34413 15.5015 9.34413 15.5015L8.92221 19.302Z" fill="#D2E5F1"/>
<path d="M9.02781 19.4375L8.91117 19.4265C8.82381 19.418 8.64909 19.3105 8.46093 18.682C8.26893 18.04 7.29117 14.6595 7.29117 14.6595L7.26477 14.569L7.34109 14.518L15.1094 9.314C15.2145 9.246 15.4713 9.103 15.6264 9.1995C15.6614 9.221 15.7157 9.2705 15.7262 9.3715L15.7392 9.432C15.7493 9.5315 15.6849 9.6445 15.5299 9.797C15.2985 10.0255 9.98061 15.068 9.45885 15.563L9.02781 19.4375ZM7.54701 14.677C7.70349 15.218 8.51661 18.0275 8.68989 18.607C8.74365 18.7865 8.79309 18.9115 8.83485 18.9975L9.22989 15.4405L9.26301 15.409C9.32157 15.3535 15.1277 9.8485 15.3638 9.6145C15.4315 9.5475 15.4656 9.5025 15.4833 9.476L15.4867 9.416C15.4329 9.423 15.324 9.469 15.2366 9.525L7.54701 14.677Z" fill="#2B2B2B"/>
<path d="M15.0643 20.2395C14.8915 20.2395 14.7082 20.1955 14.5171 20.1075L14.4744 20.082L11.2541 17.681L9.4272 19.4365C9.38448 19.473 9.1416 19.6575 8.85264 19.542C8.56848 19.4615 8.40336 18.9095 8.34624 18.719C8.18544 18.1815 7.47312 15.721 7.24608 14.937L7.212 14.8195L4.09488 13.7125C4.06512 13.7015 3.45456 13.4675 3.38928 12.915C3.33264 12.436 3.81504 12.129 4.10928 12.023L16.9608 6.7045L16.9622 6.7085C17.1658 6.604 17.6376 6.4665 17.9554 6.5935C18.1013 6.6525 18.3461 6.8165 18.3461 7.2575L16.0512 19.488C16.0214 19.578 15.8563 19.9865 15.4435 20.1635C15.323 20.214 15.1968 20.2395 15.0643 20.2395ZM14.7331 19.66C14.9362 19.749 15.1138 19.7615 15.2611 19.6995C15.4867 19.6035 15.5914 19.35 15.5923 19.3475L17.8704 7.209C17.8661 7.1605 17.8464 7.0985 17.8075 7.073C17.7019 7.0015 17.4331 7.0535 17.2392 7.126L17.2387 7.127L4.27584 12.491C4.11792 12.549 3.84816 12.71 3.86496 12.853C3.88992 13.063 4.17696 13.2115 4.2528 13.2395L7.58736 14.4235L7.62816 14.5305C7.62816 14.531 7.65744 14.627 7.70496 14.7915C7.932 15.575 8.64336 18.032 8.80416 18.57C8.91024 18.925 8.9952 19.044 9.02064 19.0735C9.06672 19.0925 9.12144 19.0525 9.12192 19.0515L11.2157 17.0375L14.7331 19.66Z" fill="#2B2B2B"/>
</g>
<defs>
<clipPath id="clip0_10_71">
<rect width="24" height="25" fill="white"/>
</clipPath>
</defs>
</svg>
