<svg width="24" height="24" viewBox="0 0 24 24" fill="none" xmlns="http://www.w3.org/2000/svg">
<g clip-path="url(#clip0_20_50)">
<path d="M5.21848 23.15C2.80998 23.15 0.849976 21.19 0.849976 18.7815V5.21899C0.849976 2.81049 2.80998 0.850494 5.21848 0.850494H18.781C21.1895 0.850494 23.1495 2.81049 23.1495 5.21899V18.7815C23.1495 21.19 21.1895 23.15 18.781 23.15H5.21848Z" fill="#2B2B2B"/>
<path d="M18.781 1.2C20.997 1.2 22.7995 3.003 22.7995 5.2185V18.781C22.7995 20.997 20.9965 22.7995 18.781 22.7995H5.2185C3.0025 22.7995 1.2 20.9965 1.2 18.781V5.219C1.2 3.003 3.003 1.2005 5.2185 1.2005H18.781M18.781 0.5H5.2185C2.6235 0.5 0.5 2.6235 0.5 5.219V18.7815C0.5 21.3765 2.6235 23.5 5.2185 23.5H18.781C21.3765 23.5 23.5 21.3765 23.5 18.7815V5.219C23.5 2.6235 21.3765 0.5 18.781 0.5Z" fill="#2B2B2B"/>
<path d="M20 8.5C20 8.5 16.5 8.5 16 4.5H13V11.512V15L12.975 16.5C12.849 17.6235 11.907 18.5 10.75 18.5C9.5075 18.5 8.5 17.4925 8.5 16.25C8.5 15.0075 9.5075 14 10.75 14C10.8355 14 10.917 14.016 11 14.025V11.0125C10.9165 11.0085 10.8345 11 10.75 11C7.8505 11 5.5 13.3505 5.5 16.25C5.5 19.1495 7.8505 21.5 10.75 21.5C13.565 21.5 15.856 19.2825 15.9875 16.5H16V10.12C16.99 10.9315 18.292 11.5 20 11.5C20 10.5 20 8.5 20 8.5Z" fill="#EE3E54"/>
<path d="M16 15.5C15.931 15.5 15.875 15.444 15.875 15.375V11.0625C15.875 10.9935 15.931 10.9375 16 10.9375C16.069 10.9375 16.125 10.9935 16.125 11.0625V15.375C16.125 15.444 16.069 15.5 16 15.5Z" fill="#2B2B2B"/>
<path d="M10.75 21.625C10.3505 21.625 9.95249 21.581 9.56699 21.4945C9.49949 21.4795 9.45699 21.4125 9.47249 21.345C9.48749 21.278 9.55199 21.2345 9.62199 21.2505C10.356 21.415 11.141 21.416 11.872 21.2515C12.034 21.216 12.1955 21.1715 12.3535 21.119C12.5525 21.053 12.7475 20.975 12.932 20.8875C14.651 20.0755 15.7735 18.392 15.8625 16.494C15.866 16.427 15.9205 16.375 15.9875 16.375C16.0565 16.375 16.119 16.431 16.119 16.5C16.119 16.517 16.116 16.533 16.11 16.5485C16.002 18.5215 14.8285 20.268 13.0385 21.1135C12.8445 21.206 12.6405 21.2875 12.431 21.3565C12.2655 21.411 12.0955 21.458 11.9255 21.4955C11.5435 21.5815 11.148 21.625 10.75 21.625Z" fill="#2B2B2B"/>
<path d="M8.677 15.499C8.661 15.499 8.6445 15.496 8.628 15.489C8.5645 15.462 8.5345 15.3885 8.5615 15.325C8.9345 14.444 9.7935 13.875 10.75 13.875C10.7925 13.875 10.834 13.8785 10.875 13.8835V11.013C10.875 10.944 10.931 10.888 11 10.888C11.069 10.888 11.125 10.944 11.125 11.013V14.0255C11.125 14.061 11.11 14.095 11.0835 14.119C11.0565 14.1425 11.0215 14.1525 10.9865 14.15L10.9095 14.14C10.8575 14.133 10.8045 14.1255 10.7505 14.1255C9.8945 14.1255 9.126 14.635 8.7925 15.4235C8.7715 15.47 8.7255 15.499 8.677 15.499Z" fill="#2B2B2B"/>
<path d="M20 11.625C19.275 11.625 18.5845 11.5225 17.947 11.3205C17.881 11.2995 17.8445 11.229 17.8655 11.164C17.8865 11.098 17.959 11.0615 18.022 11.0825C18.5985 11.265 19.2215 11.3635 19.875 11.3745V8.62C19.545 8.598 18.6225 8.4815 17.731 7.8685C17.674 7.8295 17.6595 7.7515 17.699 7.6945C17.7385 7.638 17.817 7.624 17.873 7.6625C18.897 8.3665 19.9895 8.375 20.0005 8.375C20.0695 8.375 20.1255 8.431 20.1255 8.5V11.5C20.125 11.569 20.069 11.625 20 11.625Z" fill="#2B2B2B"/>
<path d="M9.75 20.75C6.7175 20.75 4.25 18.2825 4.25 15.25C4.25 12.2175 6.7175 9.75 9.75 9.75C9.81 9.75 9.8685 9.754 9.9275 9.758L10.0115 9.7635C10.145 9.7695 10.25 9.8795 10.25 10.013V13.0255C10.25 13.097 10.2195 13.164 10.1665 13.212C10.1205 13.253 10.061 13.2755 10 13.2755C9.9905 13.2755 9.892 13.264 9.892 13.264C9.845 13.2575 9.7985 13.25 9.75 13.25C8.647 13.25 7.75 14.147 7.75 15.25C7.75 16.353 8.647 17.25 9.75 17.25C10.763 17.25 11.613 16.486 11.726 15.472L11.75 13.9955V3.5C11.75 3.362 11.862 3.25 12 3.25H15C15.126 3.25 15.2325 3.344 15.248 3.469C15.714 7.194 18.8665 7.25 19.0005 7.2505C19.138 7.251 19.25 7.363 19.25 7.5005V10.5005C19.25 10.6385 19.138 10.7505 19 10.7505C17.586 10.7505 16.327 10.3715 15.25 9.623V15.5C15.25 15.532 15.2435 15.563 15.233 15.592C15.0545 18.4905 12.6615 20.75 9.75 20.75Z" fill="white"/>
<path d="M15 3.5C15.5 7.5 19 7.5 19 7.5C19 7.5 19 9.5 19 10.5C17.292 10.5 15.99 9.932 15 9.12V15.5H14.9875C14.856 18.2825 12.565 20.5 9.75 20.5C6.8505 20.5 4.5 18.1495 4.5 15.25C4.5 12.3505 6.8505 10 9.75 10C9.8345 10 9.9165 10.0085 10 10.0125V13.025C9.917 13.016 9.8355 13 9.75 13C8.5075 13 7.5 14.0075 7.5 15.25C7.5 16.4925 8.5075 17.5 9.75 17.5C10.907 17.5 11.849 16.6235 11.975 15.5L12 14V10.512V3.5H15ZM15 3H12C11.724 3 11.5 3.224 11.5 3.5V10.512V14L11.4755 15.4665C11.366 16.3425 10.6285 17 9.75 17C8.785 17 8 16.215 8 15.25C8 14.285 8.785 13.5 9.75 13.5C9.7875 13.5 9.8235 13.5065 9.8595 13.5115L9.944 13.5225C9.9625 13.5245 9.981 13.5255 9.9995 13.5255C10.122 13.5255 10.2405 13.4805 10.333 13.398C10.4395 13.303 10.5 13.1675 10.5 13.025V10.0125C10.5 9.7455 10.2905 9.5255 10.0235 9.513L9.9455 9.508C9.8805 9.504 9.816 9.5 9.75 9.5C6.5795 9.5 4 12.0795 4 15.25C4 18.4205 6.5795 21 9.75 21C12.7845 21 15.28 18.6525 15.4805 15.6355C15.493 15.5925 15.5 15.547 15.5 15.5V10.0805C16.5285 10.691 17.7015 11 19 11C19.276 11 19.5 10.776 19.5 10.5V7.5C19.5 7.224 19.276 7 19 7C18.877 6.999 15.933 6.9345 15.496 3.438C15.465 3.188 15.252 3 15 3Z" fill="#2B2B2B"/>
<path d="M19 7.94601C19 7.67601 19 7.50001 19 7.50001C19 7.50001 17.6755 7.49651 16.5395 6.56451C17.3435 7.51951 18.39 7.84151 19 7.94601Z" fill="#83CCB7"/>
<path d="M8.43301 17.067C8.84201 17.63 9.50101 18 10.25 18C11.407 18 12.349 17.1235 12.475 16L12.5 14.5V11.012V4H15.0905C15.057 3.838 15.0225 3.6775 15 3.5H12V10.512V14L11.975 15.5C11.849 16.6235 10.907 17.5 9.75001 17.5C9.25651 17.5 8.80401 17.3365 8.43301 17.067Z" fill="#83CCB7"/>
<path d="M5 15.75C5 12.935 7.2175 10.644 10 10.5125V10.0125C9.9165 10.0085 9.8345 10 9.75 10C6.8505 10 4.5 12.3505 4.5 15.25C4.5 16.827 5.199 18.238 6.2995 19.2005C5.4925 18.2775 5 17.0725 5 15.75Z" fill="#83CCB7"/>
<path d="M12.5 10.125C12.431 10.125 12.375 10.069 12.375 10V4C12.375 3.931 12.431 3.875 12.5 3.875H15.0905C15.1595 3.875 15.2155 3.931 15.2155 4C15.2155 4.069 15.1595 4.125 15.0905 4.125H12.625V10C12.625 10.069 12.569 10.125 12.5 10.125Z" fill="#2B2B2B"/>
<path d="M12.5 14.625C12.431 14.625 12.375 14.569 12.375 14.5V11.012C12.375 10.943 12.431 10.887 12.5 10.887C12.569 10.887 12.625 10.943 12.625 11.012V14.5C12.625 14.569 12.569 14.625 12.5 14.625Z" fill="#2B2B2B"/>
<path d="M10.25 18.125C10.181 18.125 10.125 18.069 10.125 18C10.125 17.931 10.181 17.875 10.25 17.875C11.327 17.875 12.23 17.063 12.3505 15.9865L12.3615 15.2685C12.3625 15.2 12.4185 15.1455 12.4865 15.1455C12.487 15.1455 12.488 15.1455 12.4885 15.1455C12.558 15.1465 12.6125 15.2035 12.6115 15.2725L12.5995 16.002C12.4645 17.2175 11.4545 18.125 10.25 18.125Z" fill="#2B2B2B"/>
<path d="M8.18352 11.0535C8.13502 11.0535 8.08902 11.025 8.06902 10.978C8.04152 10.9145 8.07102 10.841 8.13452 10.814C8.72502 10.5615 9.35051 10.418 9.99451 10.3875C10.055 10.394 10.122 10.438 10.1255 10.5065C10.1285 10.5755 10.075 10.634 10.0065 10.6375C9.39252 10.6665 8.79601 10.803 8.23351 11.0435C8.21701 11.0505 8.20002 11.0535 8.18352 11.0535Z" fill="#2B2B2B"/>
<path d="M5 15.875C4.931 15.875 4.875 15.819 4.875 15.75C4.875 13.8935 5.8155 12.194 7.39 11.2035C7.448 11.1685 7.5255 11.184 7.5625 11.243C7.599 11.301 7.5815 11.3785 7.523 11.4155C6.0215 12.3595 5.125 13.98 5.125 15.75C5.125 15.819 5.069 15.875 5 15.875Z" fill="#2B2B2B"/>
</g>
<defs>
<clipPath id="clip0_20_50">
<rect width="24" height="24" fill="white"/>
</clipPath>
</defs>
</svg>
