<svg width="24" height="24" viewBox="0 0 24 24" fill="none" xmlns="http://www.w3.org/2000/svg">
<g clip-path="url(#clip0_10_47)">
<path d="M4.49998 23.15C2.48748 23.15 0.849976 21.513 0.849976 19.5V4.50001C0.849976 2.48751 2.48698 0.850006 4.49998 0.850006H19.5C21.5125 0.850006 23.15 2.48701 23.15 4.50001V19.5C23.15 21.5125 21.513 23.15 19.5 23.15H4.49998Z" fill="#5FB0E3"/>
<path d="M19.5 1.2C21.3195 1.2 22.8 2.6805 22.8 4.5V19.5C22.8 21.3195 21.3195 22.8 19.5 22.8H4.5C2.6805 22.8 1.2 21.3195 1.2 19.5V4.5C1.2 2.6805 2.6805 1.2 4.5 1.2H19.5ZM19.5 0.5H4.5C2.3 0.5 0.5 2.3 0.5 4.5V19.5C0.5 21.7 2.3 23.5 4.5 23.5H19.5C21.7 23.5 23.5 21.7 23.5 19.5V4.5C23.5 2.3 21.7 0.5 19.5 0.5Z" fill="#2B2B2B"/>
<path d="M21.25 10.9375V11.8125V19C21.25 20.2375 20.2375 21.25 19 21.25H5C3.7625 21.25 2.75 20.2375 2.75 19V5C2.75 3.7625 3.7625 2.75 5 2.75H17.6875H19C20.2375 2.75 21.25 3.7625 21.25 5V6.6875V7.6875V8.1875V8.75V10.1875V10.9375Z" fill="#5FB0E3"/>
<path d="M21.25 10.6875C21.112 10.6875 21 10.5755 21 10.4375V8.5C21 8.362 21.112 8.25 21.25 8.25C21.388 8.25 21.5 8.362 21.5 8.5V10.4375C21.5 10.5755 21.388 10.6875 21.25 10.6875Z" fill="#2B2B2B"/>
<path d="M21.25 7.25C21.112 7.25 21 7.138 21 7V6C21 5.862 21.112 5.75 21.25 5.75C21.388 5.75 21.5 5.862 21.5 6V7C21.5 7.138 21.388 7.25 21.25 7.25Z" fill="#2B2B2B"/>
<path d="M19 21.5H5C3.6215 21.5 2.5 20.3785 2.5 19V5C2.5 3.6215 3.6215 2.5 5 2.5H17.6875C17.8255 2.5 17.9375 2.612 17.9375 2.75C17.9375 2.888 17.8255 3 17.6875 3H5C3.897 3 3 3.897 3 5V19C3 20.103 3.897 21 5 21H19C20.103 21 21 20.103 21 19V11.8125C21 11.6745 21.112 11.5625 21.25 11.5625C21.388 11.5625 21.5 11.6745 21.5 11.8125V19C21.5 20.3785 20.3785 21.5 19 21.5Z" fill="#2B2B2B"/>
<path d="M17.4315 13.905C18.59 15.1115 18.832 15.7 18.8705 15.7715C19.351 16.6675 18.339 16.735 18.339 16.735L16.4035 16.767C16.4035 16.767 15.9865 16.86 15.439 16.435C14.713 15.882 14.032 14.433 13.497 14.6185C12.959 14.811 12.975 16.1175 12.975 16.1175C12.975 16.1175 12.978 16.346 12.857 16.496C12.7235 16.653 12.4625 16.639 12.4625 16.639H11.5935C11.5935 16.639 9.6805 16.8175 7.9965 14.851C6.1595 12.706 4.53949 8.47702 4.53949 8.47702C4.53949 8.47702 4.447 8.20952 4.546 8.07352C4.6605 7.92352 4.9725 7.91652 4.9725 7.91652L7.045 7.90602C7.045 7.90602 7.239 7.94552 7.379 8.05952C7.4935 8.15252 7.56049 8.33052 7.56049 8.33052C7.56049 8.33052 7.8945 9.28352 8.337 10.14C9.203 11.8175 9.607 12.185 9.9 12.0065C10.3295 11.7425 10.199 9.63702 10.199 9.63702C10.199 9.63702 10.2085 8.86952 9.9825 8.52702C9.8105 8.26652 9.486 8.18802 9.3395 8.16652C9.2215 8.14852 9.416 7.84552 9.664 7.70952C10.0365 7.50602 10.6955 7.49202 11.472 7.50252C12.077 7.50952 12.252 7.55252 12.4875 7.61652C13.2035 7.80902 12.962 8.55502 12.962 10.3465C12.962 10.921 12.8695 11.7275 13.239 11.9955C13.398 12.1095 13.7865 12.0135 14.7545 10.1645C15.216 9.28652 15.56 8.25852 15.56 8.25852C15.56 8.25852 15.6365 8.07302 15.754 7.99452C15.875 7.91602 16.0375 7.94102 16.0375 7.94102L18.218 7.92302C18.218 7.92302 18.8705 7.83752 18.979 8.16952C19.0905 8.51552 18.734 9.32952 17.8425 10.6605C16.378 12.845 16.2155 12.6415 17.4315 13.905Z" fill="#FFFEF4"/>
</g>
<defs>
<clipPath id="clip0_10_47">
<rect width="24" height="24" fill="white"/>
</clipPath>
</defs>
</svg>
