<svg width="27" height="27" viewBox="0 0 27 27" fill="none" xmlns="http://www.w3.org/2000/svg">
<g clip-path="url(#clip0_11_97)">
<path d="M13.75 1.5C7.25 1.5 2 6.75 2 13.25C2 15.5 2.6 17.55 3.7 19.35L2 24.55L7.05 22.9C8.95 24.25 11.25 25 13.75 25C20.25 25 25.5 19.75 25.5 13.25C25.5 6.75 20.25 1.5 13.75 1.5Z" fill="#ADD4A1"/>
<path d="M13.75 25.35C11.3 25.35 8.99997 24.65 6.99997 23.3L2.14997 24.9C1.99997 24.95 1.89997 24.9 1.79997 24.8C1.69997 24.7 1.64997 24.55 1.69997 24.45L3.34997 19.4C2.24997 17.55 1.69997 15.45 1.69997 13.25C1.69997 6.60002 7.14997 1.15002 13.8 1.15002C20.45 1.15002 25.9 6.60002 25.9 13.25C25.9 19.9 20.4 25.35 13.75 25.35ZM7.04997 22.55C7.09997 22.55 7.19997 22.55 7.24997 22.6C9.14997 23.95 11.4 24.65 13.75 24.65C20.05 24.65 25.15 19.55 25.15 13.25C25.15 6.95002 20.05 1.85003 13.75 1.85003C7.44997 1.85003 2.34997 6.95002 2.34997 13.25C2.34997 15.35 2.89997 17.4 3.99997 19.15C4.04997 19.25 4.04997 19.35 4.04997 19.45L2.54997 24L6.89997 22.55C6.94997 22.55 6.99997 22.55 7.04997 22.55Z" fill="#2B2B2B"/>
<path d="M21.3 7.54999C19.55 5.29999 16.85 3.79999 13.75 3.79999C8.54999 3.79999 4.29999 8.04999 4.29999 13.25C4.29999 15.2 4.89999 17.05 5.94999 18.55L4.94999 21.65L7.94999 20.7C9.54999 21.95 11.6 22.75 13.8 22.75C19 22.75 23.25 18.5 23.25 13.3C23.25 12.75 23.2 12.25 23.1 11.7" fill="#5ABA9E"/>
<path d="M13.75 22.95C11.6 22.95 9.54999 22.25 7.84999 20.95L4.99999 21.9C4.89999 21.95 4.79999 21.9 4.74999 21.85C4.69999 21.8 4.64999 21.7 4.69999 21.6L5.64999 18.6C4.59999 17 4.04999 15.15 4.04999 13.25C4.04999 7.89999 8.39999 3.54999 13.75 3.54999C16.8 3.54999 19.65 4.94999 21.5 7.39999C21.6 7.49999 21.55 7.64999 21.45 7.74999C21.35 7.84999 21.2 7.79999 21.1 7.69999C19.35 5.39999 16.65 4.04999 13.75 4.04999C8.69999 4.04999 4.54999 8.19999 4.54999 13.25C4.54999 15.1 5.09999 16.9 6.14999 18.4C6.19999 18.45 6.19999 18.55 6.19999 18.6L5.34999 21.25L7.84999 20.45C7.94999 20.4 7.99999 20.45 8.09999 20.5C9.74999 21.8 11.7 22.5 13.8 22.5C18.85 22.5 23 18.35 23 13.3C23 12.8 22.95 12.25 22.85 11.75C22.85 11.6 22.9 11.5 23.05 11.45C23.2 11.45 23.3 11.5 23.35 11.65C23.45 12.2 23.5 12.75 23.5 13.25C23.45 18.6 19.1 22.95 13.75 22.95Z" fill="#2B2B2B"/>
<path d="M22.75 10.3C22.55 9.74996 22.3 9.19996 22.05 8.64996L22.75 10.3Z" fill="#5ABA9E"/>
<path d="M22.75 10.55C22.65 10.55 22.55 10.5 22.5 10.4C22.3 9.84997 22.1 9.29997 21.8 8.79997C21.75 8.69997 21.8 8.54997 21.9 8.44997C22 8.39997 22.15 8.44997 22.25 8.54997C22.55 9.09997 22.8 9.64997 23 10.2C23.05 10.35 22.95 10.45 22.85 10.5C22.8 10.55 22.75 10.55 22.75 10.55Z" fill="#2B2B2B"/>
<path d="M17.55 18.35C16.85 18.35 15.85 18.1 14.4 17.5C12.5 16.75 10.6 15.2 9.05001 13.1L8.95002 13C8.50002 12.4 7.70002 11.2 7.70002 10C7.65002 9.10002 8.05001 8.20002 8.80001 7.60002C9.05001 7.40002 9.40002 7.30002 9.70002 7.30002H9.80001H10.15C10.15 7.30002 10.2 7.30002 10.25 7.30002C10.3 7.30002 10.3 7.30002 10.35 7.30002C10.4 7.30002 10.45 7.35002 10.5 7.40002C10.6 7.50002 10.65 7.60002 10.7 7.75002L11.1 8.60002C11.4 9.25002 11.65 9.85002 11.7 9.90002C11.75 9.95002 11.85 10.15 11.75 10.35C11.65 10.5 11.55 10.65 11.45 10.75C11.4 10.85 11.35 10.9 11.3 10.95L11.15 11C11.1 11.05 10.95 11.2 10.85 11.3C10.6 11.55 10.55 11.85 10.7 12.1C11.2 12.9 11.8 13.6 12.55 14.2C13.3 14.85 14.15 15.35 15.1 15.7L15.2 15.75C15.3 15.8 15.45 15.85 15.6 15.85C15.85 15.85 16.05 15.75 16.2 15.6C16.45 15.3 16.7 15 16.95 14.7L17.1 14.5C17.15 14.45 17.25 14.3 17.45 14.3C17.5 14.3 17.6 14.3 17.65 14.35C17.9 14.45 19.3 15.05 19.8 15.3L20 15.4L20.25 15.5C20.35 15.55 20.4 15.6 20.4 15.7C20.4 16.15 20.35 16.55 20.2 16.95C19.95 17.55 18.95 18.15 18.15 18.3C18 18.35 17.8 18.35 17.55 18.35Z" fill="#FDFCEE"/>
<path d="M10.2 7.55001C10.25 7.55001 10.25 7.55001 10.3 7.55001C10.35 7.60001 10.4 7.70001 10.45 7.80001L10.75 8.45001C11.15 9.30001 11.4 9.95001 11.45 10.05C11.5 10.15 11.5 10.2 11.5 10.25C11.45 10.4 11.35 10.5 11.25 10.6L11.2 10.65C11.15 10.7 11.05 10.8 11 10.85C10.95 10.9 10.8 11.05 10.7 11.15C10.35 11.45 10.3 11.9 10.55 12.25C11.05 13.05 11.7 13.8 12.45 14.4C13.2 15.05 14.1 15.55 15.05 15.9L15.15 15.95C15.3 16 15.45 16.05 15.6 16.05C15.9 16.05 16.2 15.95 16.4 15.75C16.65 15.45 16.95 15.15 17.15 14.85L17.3 14.65C17.35 14.6 17.4 14.55 17.45 14.55C17.5 14.55 17.55 14.55 17.6 14.6C17.85 14.7 19.2 15.3 19.75 15.55L19.95 15.65L20.2 15.75C20.2 16.15 20.15 16.55 20 16.9C19.8 17.45 18.9 17.95 18.15 18.1C18 18.15 17.85 18.15 17.6 18.15C17.1 18.15 16.25 18 14.5 17.35C12.65 16.65 10.75 15.1 9.25001 13.05L9.15001 12.95C8.70001 12.35 7.95001 11.25 7.95001 10.1C7.90001 9.25001 8.30001 8.45001 8.95001 7.85001C9.15001 7.70001 9.45001 7.60001 9.70001 7.60001H9.75001C9.90001 7.60001 10 7.60001 10.1 7.60001C10.1 7.55001 10.15 7.55001 10.2 7.55001ZM10.2 7.05001C10.15 7.05001 10.15 7.05001 10.1 7.05001H9.80001C9.75001 7.05001 9.75001 7.05001 9.70001 7.05001C9.30001 7.05001 8.95001 7.20001 8.65001 7.40001C7.85001 8.05001 7.45001 9.05001 7.45001 10C7.45001 11.25 8.30001 12.5 8.80001 13.15L8.90001 13.25C10.45 15.35 12.4 16.95 14.35 17.7C15.85 18.3 16.9 18.55 17.6 18.55C17.9 18.55 18.1 18.5 18.25 18.5C19.1 18.35 20.2 17.75 20.45 17C20.6 16.6 20.7 16.1 20.7 15.65C20.7 15.45 20.55 15.3 20.4 15.2L20.15 15.1L19.95 15C19.5 14.8 18.05 14.1 17.75 14C17.7 14 17.6 13.95 17.45 13.95C17.1 13.95 16.95 14.2 16.9 14.25L16.75 14.45C16.5 14.75 16.3 15.05 16.05 15.3C15.95 15.4 15.8 15.45 15.6 15.45C15.5 15.45 15.4 15.45 15.35 15.4L15.25 15.35C14.35 15 13.5 14.55 12.8 13.9C12.1 13.3 11.5 12.6 11 11.85C10.9 11.7 10.95 11.5 11.05 11.4L11.1 11.35C11.2 11.25 11.3 11.15 11.35 11.05L11.4 11C11.45 10.95 11.5 10.9 11.55 10.85C11.7 10.7 11.8 10.55 11.9 10.4C12 10.25 12.05 10 11.85 9.70001C11.8 9.60001 11.55 9.05001 11.25 8.40001L11.15 8.15001L10.85 7.50001C10.8 7.35001 10.7 7.20001 10.6 7.10001C10.5 7.00001 10.4 6.95001 10.3 6.95001C10.25 7.05001 10.2 7.05001 10.2 7.05001Z" fill="#2B2B2B"/>
</g>
<defs>
<clipPath id="clip0_11_97">
<rect width="27" height="27" fill="white"/>
</clipPath>
</defs>
</svg>
